<svg xmlns="http://www.w3.org/2000/svg" version="1.1" xmlns:xlink="http://www.w3.org/1999/xlink" xmlns:svgjs="http://svgjs.dev/svgjs" width="100%" height="100%" viewBox="0 0 1000 600"><rect width="1000" height="600" x="0" y="0" fill="#f4a950"/><g><rect width="333.3333333333333" height="333.3333333333333" rx="13.333333333333334" ry="13.333333333333334" y="194.7067718922792" fill="#161b21" transform="matrix(0.7247025994811752,0,0,0.7247025994811751,0,38.111733378909776)" x="172.48451232910156"/><path d="M386.34068680287163 436.3734337314309L386.34068680287163 436.3734337314309L292.0499297909239 312.6536014972772L292.0499297909239 403.3245822568936Q292.0499297909239 411.38814886777806 292.49136591925696 415.71422292544236Q292.90337297236783 420.06972605832885 295.0222663883667 422.3946230008831L295.0222663883667 422.3946230008831Q297.1411598043655 424.51351641688194 301.5849501629186 426.01439925321444Q306.02874052147166 427.48585301432473 314.29831065891153 428.33929619576867L314.29831065891153 428.33929619576867Q314.73974678724466 431.7236398463223 314.29831065891153 435.107983496876L314.29831065891153 435.107983496876Q307.9416304109151 435.107983496876 300.2017836274749 434.9019799703206Q292.49136591925696 434.6959764437651 287.1941323792599 434.6959764437651L287.1941323792599 434.6959764437651Q281.8968988392628 434.6959764437651 274.15705205582265 434.9019799703206Q266.4172052723825 435.107983496876 260.2665285509415 435.107983496876L260.2665285509415 435.107983496876Q259.64851797127517 431.9296433728778 260.2665285509415 428.33929619576867L260.2665285509415 428.33929619576867Q267.8886590334928 427.27984948776924 272.12644586549044 426.3086900054365Q276.3642326974881 425.3669595983259 278.2771225869315 423.3657824832159Q280.1900124763749 421.33517629288366 280.7197358303746 417.30339298744144Q281.2494591843743 413.3010387572214 281.2494591843743 406.09091532778103L281.2494591843743 406.09091532778103L281.2494591843743 319.2162852718291Q281.2494591843743 310.74071160783376 280.7197358303746 305.8554851209476Q280.1900124763749 300.99968770928365 277.95340275948723 298.5570744658405Q275.7462221178218 296.1144612223975 271.18471545837986 294.93729821350917Q266.623208798938 293.78956427984315 258.58907126327574 292.9361210983992L258.58907126327574 292.9361210983992Q258.35363866149805 289.75778097440093 258.58907126327574 286.37343732384727L258.58907126327574 286.37343732384727Q265.1517550378277 286.37343732384727 272.56788199382356 286.57944085040276Q279.98400894981944 286.78544437695814 287.4001359058153 286.78544437695814L287.4001359058153 286.78544437695814Q288.45958261381475 286.78544437695814 293.2270927998121 286.78544437695814Q297.9946029858095 286.78544437695814 301.5849501629186 286.57944085040276L301.5849501629186 286.57944085040276L387.6061370374265 399.73423507978447L387.6061370374265 318.3628420903851Q387.6061370374265 310.2992754795007 387.3118462852044 305.8554851209476Q386.9881264577602 301.4116947623945 384.6632295152059 299.29280134639566L384.6632295152059 299.29280134639566Q380.1900100814306 294.6430074612872 363.23886275344 293.3481281515101L363.23886275344 293.3481281515101Q362.6208521737737 289.75778097440093 363.23886275344 286.57944085040276L363.23886275344 286.57944085040276Q367.2706460588822 286.57944085040276 372.8915994263235 286.69715715129155Q378.5125527937649 286.78544437695814 383.80978633376196 286.90316067784704Q389.107019873759 286.99144790351363 392.49136352431265 286.99144790351363L392.49136352431265 286.99144790351363Q397.7885970643097 286.99144790351363 405.61673107341653 286.78544437695814Q413.4742941577455 286.57944085040276 419.62497087918655 286.57944085040276L419.62497087918655 286.57944085040276Q420.0369779322974 289.75778097440093 419.62497087918655 293.14212462495465L419.62497087918655 293.14212462495465Q409.4425108523033 294.4075748595095 404.99872049375017 295.9967449215086Q400.5549301351971 297.5859149835078 399.4954834271977 301.8237018155054Q398.4360367191983 306.06148864750304 398.4360367191983 315.5965090194978L398.4360367191983 315.5965090194978L398.4360367191983 435.3139870234315Q396.31714330319943 435.75542315176455 392.69736705086814 436.0791429792088Q389.107019873759 436.3734337314309 386.34068680287163 436.3734337314309Z " fill="#f4a950" transform="matrix(0.7247025994811752,0,0,0.7247025994811751,0,38.111733378909776)"/><path d="M589.354902719019 434.22747432749094L589.354902719019 434.22747432749094Q588.9474416631948 431.29375472555677 589.354902719019 427.97973813818686L589.354902719019 427.97973813818686Q598.5363585102571 427.0018316042088 602.4479846461692 426.10541728139566Q606.3596107820813 425.23616702897067 607.3375173160593 422.19379114548354Q608.3154238500374 419.1785793323847 608.3154238500374 412.3332335945385L608.3154238500374 412.3332335945385L608.3154238500374 321.38792593458237Q608.3154238500374 313.1572126069339 607.3375173160593 309.653047526846Q606.3596107820813 306.1217183763698 602.339328364616 305.06231963122696Q598.3462100175391 303.97575681569583 589.354902719019 303.18799877443575L589.354902719019 303.18799877443575Q588.9474416631948 300.2542791725017 589.354902719019 296.94026258513173L589.354902719019 296.94026258513173Q593.456677347649 296.94026258513173 599.0253117772461 297.0217547962966Q604.5939462068432 297.13041107784966 610.0810884252754 297.23906735940284Q615.5410665733193 297.32055957056764 619.0723957237956 297.32055957056764L619.0723957237956 297.32055957056764Q622.7938733669897 297.32055957056764 628.3625077965868 297.23906735940284Q633.9311422261839 297.13041107784966 639.7170892188872 297.0217547962966Q645.4758721412022 296.94026258513173 649.1973497843964 296.94026258513173L649.1973497843964 296.94026258513173Q649.7677952625502 299.8739821870658 649.1973497843964 303.18799877443575L649.1973497843964 303.18799877443575Q639.98872992277 303.97575681569583 635.8869552941399 304.9536633496739Q631.7851806655099 305.9315698836519 630.8072741315318 308.865289485586Q629.8293675975539 311.79900908752 629.8293675975539 318.83450331808416L629.8293675975539 318.83450331808416L629.8293675975539 409.7798109780403Q629.8293675975539 416.4350082231685 629.9380238791069 420.4552906406337Q630.0195160902717 424.4484089877107 630.2096645829897 425.8337765775129L630.2096645829897 425.8337765775129L657.9985085901985 425.8337765775129Q674.2154586120007 425.8337765775129 682.0387108838249 418.5809697838425L682.0387108838249 418.5809697838425Q688.5037596362351 412.3332335945385 695.5392538667993 396.68672905089005L695.5392538667993 396.68672905089005Q698.6631219614515 396.08911950234796 701.5968415633854 396.68672905089005L701.5968415633854 396.68672905089005Q699.2607315099935 408.6117559513444 697.7938717090265 418.09201651685345Q696.3270119080594 427.57227708236263 695.3491053740813 434.03732583477296L695.3491053740813 434.03732583477296Q676.3885842430631 434.03732583477296 657.5095553232095 433.9286695532198Q638.630526403356 433.847177342055 619.6700052723377 433.847177342055L619.6700052723377 433.847177342055Q615.9485276291435 433.847177342055 610.2712369179933 433.9286695532198Q604.5939462068432 434.03732583477296 598.916655495693 434.145982116326Q593.266528854931 434.22747432749094 589.354902719019 434.22747432749094ZM753.643200427327 436.3734358881649L753.643200427327 436.3734358881649Q739.7351963885283 436.3734358881649 730.1734436118543 429.93555120614286Q720.5845267647921 423.47050245373265 715.5863378133488 412.63203836880956Q710.6153129322938 401.7664102134982 710.6153129322938 388.67332828634795L710.6153129322938 388.67332828634795Q710.6153129322938 375.1727853033736 715.7764863060668 363.6280553883552Q720.9648237502279 352.08332547333697 730.9340375827262 344.93917496121975Q740.9304154856127 337.8221885194908 755.1915524394587 337.8221885194908L755.1915524394587 337.8221885194908Q772.4135730656274 337.8221885194908 782.0839821238544 348.09020712626005Q791.7815552524698 358.3582257330292 791.7815552524698 374.5751757548315L791.7815552524698 374.5751757548315Q791.7815552524698 376.5309888227875 791.6728989709168 377.9978486237546Q791.5642426893635 379.46470842472155 791.3740941966457 380.4426149586996L791.3740941966457 380.4426149586996L729.7659825560302 379.8721694805458Q729.7659825560302 380.6327634514176 729.7659825560302 381.2303729999597L729.7659825560302 381.2303729999597Q729.7659825560302 400.4082066940842 738.5671413618325 411.35532706056046Q747.3683001676345 422.3024474270366 763.204953204001 422.3024474270366L763.204953204001 422.3024474270366Q776.5153476942573 422.3024474270366 789.4182811286896 413.6914371139524L789.4182811286896 413.6914371139524Q791.3740941966457 416.05471123773265 792.3520007306236 418.20067279840663L792.3520007306236 418.20067279840663Q775.7275896529973 436.3734358881649 753.643200427327 436.3734358881649ZM730.3635921045723 372.6193626868754L730.3635921045723 372.6193626868754L770.8380569831072 371.8316046456153Q771.0282054758252 371.45130766017945 771.0282054758252 370.77220590047244Q771.0282054758252 370.09310414076555 771.0282054758252 369.8757915776593L771.0282054758252 369.8757915776593Q771.0282054758252 359.33613226700726 766.437477580206 352.27347396605484Q761.8467496845869 345.2379797354908 752.8554423860669 345.2379797354908L752.8554423860669 345.2379797354908Q744.4345805657006 345.2379797354908 738.1868443763965 352.08332547333697Q731.9119441167043 358.92867121118314 730.3635921045723 372.6193626868754ZM854.3675734270632 434.22747432749094L854.3675734270632 434.22747432749094Q848.8804312086311 434.22747432749094 843.012992004763 434.03732583477296Q837.1455528008948 433.847177342055 830.3002070630487 433.847177342055L830.3002070630487 433.847177342055Q824.0524708737446 433.847177342055 817.6960784028875 434.03732583477296Q811.3396859320303 434.22747432749094 805.4722467281622 434.22747432749094L805.4722467281622 434.22747432749094Q804.8746371796201 431.1036062328389 805.4722467281622 428.16988663090484L805.4722467281622 428.16988663090484Q812.100279902902 427.7895896454689 815.2513120679423 426.89317532265574Q818.3751801625945 426.02392507023075 819.3530866965723 423.0902054682967Q820.3309932305503 420.15648586636263 820.3309932305503 413.6914371139524L820.3309932305503 413.6914371139524L820.3309932305503 369.8757915776593Q820.3309932305503 362.2698518689413 819.7333836820083 358.5483742257472Q819.1629382038545 354.82689658255305 816.1205623203673 353.36003678158596Q813.0781864368801 351.893176980619 805.6623952208802 350.91527044664093L805.6623952208802 350.91527044664093Q805.0647856723381 348.17169933742485 805.6623952208802 345.8355892840329L805.6623952208802 345.8355892840329Q814.2734055339643 344.26007320151274 822.0966578057885 341.9239631481208Q829.9199100776127 339.56068902434055 837.1455528008948 336.84428198551274L837.1455528008948 336.84428198551274L840.4595693882648 338.01233701220866Q840.2694208955468 344.06992470879476 840.1879286843819 349.3397543641208Q840.0792724028288 354.63674808983507 840.0792724028288 359.33613226700726L840.0792724028288 359.33613226700726L840.0792724028288 411.7356240459963Q840.0792724028288 419.36872782510255 840.9485226552538 422.6827444124726Q841.8449369780669 426.02392507023075 844.8601487911658 426.89317532265574Q847.902524674653 427.7895896454689 854.3675734270632 428.16988663090484L854.3675734270632 428.16988663090484Q854.9380189052172 431.1036062328389 854.3675734270632 434.22747432749094ZM815.2513120679423 303.59545983026L815.2513120679423 303.59545983026Q815.2513120679423 297.91816911910973 819.2444304150192 294.0065429831977Q823.2647128324845 290.09491684728556 828.9420035436347 290.09491684728556L828.9420035436347 290.09491684728556Q834.4019816916787 290.09491684728556 838.4222641091437 294.0065429831977Q842.4153824562209 297.91816911910973 842.4153824562209 303.37814726715374L842.4153824562209 303.37814726715374Q842.4153824562209 308.48499250015004 838.5037563203086 312.66825933994494Q834.5921301843966 316.87869025012805 828.5345424878105 316.87869025012805L828.5345424878105 316.87869025012805Q823.0745643397665 316.87869025012805 819.1629382038545 312.967064114216Q815.2513120679423 309.05543797830387 815.2513120679423 303.59545983026ZM914.0198719997227 436.3734358881649L914.0198719997227 436.3734358881649Q906.5769167133344 436.3734358881649 899.3512739900523 434.4176228202088Q892.098467196382 432.4618097522528 884.8728244730999 428.76749617944694L884.8728244730999 428.76749617944694Q883.4874568832977 430.5059966842967 882.1292533638839 432.08151276681684Q880.7710498444699 433.657028849337 879.5758307473857 435.39552935418686L879.5758307473857 435.39552935418686Q878.2176272279717 435.2053808614689 876.9409159197226 435.0152323687509Q875.6642046114737 434.82508387603303 874.6862980774956 434.63493538331505L874.6862980774956 434.63493538331505Q875.0937591333197 431.1036062328389 875.0937591333197 425.34482331052385Q875.0937591333197 419.55887631782053 875.0937591333197 411.7356240459963L875.0937591333197 411.7356240459963L875.0937591333197 315.7106352234321Q875.0937591333197 309.653047526846 873.9257041066237 306.61067164335884Q872.7304850095395 303.59545983026 869.3078121406163 302.3187485220109Q865.8851392716933 301.0420372137618 859.0397935338472 300.4444276652197L859.0397935338472 300.4444276652197Q858.4693480556934 297.91816911910973 859.0397935338472 295.17459800989366L859.0397935338472 295.17459800989366Q866.8630458056714 294.1966914759156 875.0937591333197 292.1322221264064Q883.2973083905797 290.09491684728556 891.908318703664 286.3734392040914L891.908318703664 286.3734392040914L895.2223352910341 287.5414942307874Q895.0321867983162 291.86058142252364 894.9506945871512 297.32055957056764Q894.8420383055982 302.8077017889999 894.8420383055982 309.24558647102185L894.8420383055982 309.24558647102185L894.8420383055982 350.91527044664093Q902.8554390701402 343.6896277233589 910.3798865676933 340.75590812142485Q917.9314981356349 337.8221885194908 925.1571408589168 337.8221885194908L925.1571408589168 337.8221885194908Q937.4896288151951 337.8221885194908 946.1821313394444 344.3687294830659Q954.8746338636934 350.91527044664093 959.4925258297008 361.3734375461282Q964.08325372532 371.8316046456153 964.08325372532 383.7837956164579L964.08325372532 383.7837956164579Q964.08325372532 397.6646355848681 957.7268612544626 409.6983187668755Q951.3704687836055 421.7048378784945 940.1245436428583 429.0391368833297Q928.8786185021111 436.3734358881649 914.0198719997227 436.3734358881649ZM894.6518898128802 359.52628075972524L894.6518898128802 359.52628075972524L894.6518898128802 418.5809697838425Q903.6431971114005 428.76749617944694 916.3559820531145 428.76749617944694L916.3559820531145 428.76749617944694Q926.3251958856129 428.76749617944694 932.382783582199 423.28035396101467Q938.4675353491732 417.7932117425824 941.1024501768363 408.9920529367802Q943.7373650044992 400.19089413097805 943.7373650044992 390.4118287911978L943.7373650044992 390.4118287911978Q943.7373650044992 380.85007601452384 941.1024501768363 371.5599639417325Q938.4675353491732 362.2698518689413 932.491439863752 356.10360789080215Q926.5153443783308 349.937363912663 916.1658335603968 349.937363912663L916.1658335603968 349.937363912663Q910.4885428492464 349.937363912663 905.0014006308143 352.27347396605484Q899.5414224827703 354.63674808983507 894.6518898128802 359.52628075972524ZM1024.9036073246752 434.22747432749094L1024.9036073246752 434.22747432749094Q1019.2263166135249 434.22747432749094 1013.3588774096568 434.03732583477296Q1007.4914382057887 433.847177342055 1000.2657954825067 433.847177342055L1000.2657954825067 433.847177342055Q993.0129886888362 433.847177342055 987.3628620480745 434.03732583477296Q981.6855713369243 434.22747432749094 975.8181321330562 434.22747432749094L975.8181321330562 434.22747432749094Q975.2205225845139 431.1036062328389 975.8181321330562 428.16988663090484L975.8181321330562 428.16988663090484Q982.4733293781844 427.7895896454689 985.5971974728363 426.89317532265574Q988.7210655674883 426.02392507023075 989.6989721014663 423.0902054682967Q990.6768786354444 420.15648586636263 990.6768786354444 413.6914371139524L990.6768786354444 413.6914371139524L990.6768786354444 315.7106352234321Q990.6768786354444 309.653047526846 989.5903158199133 306.61067164335884Q988.5309170747705 303.59545983026 985.1082442058473 302.3187485220109Q981.6855713369243 301.0420372137618 974.8402255990782 300.4444276652197L974.8402255990782 300.4444276652197Q974.2426160505358 297.91816911910973 974.8402255990782 295.17459800989366L974.8402255990782 295.17459800989366Q982.6634778709022 294.1966914759156 990.8670271281624 292.1322221264064Q999.0977404558107 290.09491684728556 1007.6815866985066 286.3734392040914L1007.6815866985066 286.3734392040914L1011.0227673562649 287.5414942307874Q1010.8326188635469 291.86058142252364 1010.7239625819939 297.32055957056764Q1010.6153063004408 302.8077017889999 1010.6153063004408 309.24558647102185L1010.6153063004408 309.24558647102185L1010.6153063004408 411.7356240459963Q1010.6153063004408 419.36872782510255 1011.511720623254 422.6827444124726Q1012.3809708756789 426.02392507023075 1015.423346759166 426.89317532265574Q1018.438558572265 427.7895896454689 1024.9036073246752 428.16988663090484L1024.9036073246752 428.16988663090484Q1025.2839043101112 431.1036062328389 1024.9036073246752 434.22747432749094ZM1079.6663732274444 436.3734358881649L1079.6663732274444 436.3734358881649Q1065.7855332590343 436.3734358881649 1056.196616411972 429.93555120614286Q1046.6076995649096 423.47050245373265 1041.6366746838546 412.63203836880956Q1036.6384857324115 401.7664102134982 1036.6384857324115 388.67332828634795L1036.6384857324115 388.67332828634795Q1036.6384857324115 375.1727853033736 1041.8268231765726 363.6280553883552Q1047.015160620734 352.08332547333697 1056.984374453232 344.93917496121975Q1066.9535882857301 337.8221885194908 1081.2418893099648 337.8221885194908L1081.2418893099648 337.8221885194908Q1098.4367458657448 337.8221885194908 1108.1343189943602 348.09020712626005Q1117.8047280525873 358.3582257330292 1117.8047280525873 374.5751757548315L1117.8047280525873 374.5751757548315Q1117.8047280525873 376.5309888227875 1117.6960717710342 377.9978486237546Q1117.6145795598693 379.46470842472155 1117.4244310671515 380.4426149586996L1117.4244310671515 380.4426149586996L1055.816319426536 379.8721694805458Q1055.816319426536 380.6327634514176 1055.816319426536 381.2303729999597L1055.816319426536 381.2303729999597Q1055.816319426536 400.4082066940842 1064.6174782323383 411.35532706056046Q1073.4186370381406 422.3024474270366 1089.2552900745068 422.3024474270366L1089.2552900745068 422.3024474270366Q1102.538520494375 422.3024474270366 1115.4686179991954 413.6914371139524L1115.4686179991954 413.6914371139524Q1117.4244310671515 416.05471123773265 1118.4023376011296 418.20067279840663L1118.4023376011296 418.20067279840663Q1101.777926523503 436.3734358881649 1079.6663732274444 436.3734358881649ZM1056.38676490469 372.6193626868754L1056.38676490469 372.6193626868754L1096.888393853613 371.8316046456153Q1097.078542346331 371.45130766017945 1097.078542346331 370.77220590047244Q1097.078542346331 370.09310414076555 1097.078542346331 369.8757915776593L1097.078542346331 369.8757915776593Q1097.078542346331 359.33613226700726 1092.487814450712 352.27347396605484Q1087.8699224847046 345.2379797354908 1078.8786151861843 345.2379797354908L1078.8786151861843 345.2379797354908Q1070.4849174362064 345.2379797354908 1064.2100171765142 352.08332547333697Q1057.96228098721 358.92867121118314 1056.38676490469 372.6193626868754ZM1131.4954195282799 434.22747432749094L1131.4954195282799 434.22747432749094Q1130.8978099797375 431.1036062328389 1131.4954195282799 428.16988663090484L1131.4954195282799 428.16988663090484Q1138.150616773408 427.7895896454689 1141.27448486806 426.89317532265574Q1144.398352962712 426.02392507023075 1145.37625949669 423.0902054682967Q1146.354166030668 420.15648586636263 1146.354166030668 413.6914371139524L1146.354166030668 413.6914371139524L1146.354166030668 369.8757915776593Q1146.354166030668 362.2698518689413 1145.675064270961 358.5483742257472Q1144.995962511254 354.82689658255305 1141.953586627767 353.36003678158596Q1138.938374814668 351.893176980619 1131.6855680209976 350.91527044664093L1131.6855680209976 350.91527044664093Q1131.1151225428437 348.17169933742485 1131.6855680209976 345.8355892840329L1131.6855680209976 345.8355892840329Q1139.5088202928218 344.26007320151274 1146.95177557921 342.2227679223918Q1154.3675667952102 340.15829857288264 1162.5982801228586 336.84428198551274L1162.5982801228586 336.84428198551274L1165.9122967102285 338.01233701220866L1165.9122967102285 355.2071935679889Q1179.6029881859208 337.8221885194908 1193.8912892101553 337.8221885194908L1193.8912892101553 337.8221885194908Q1200.7366349480012 337.8221885194908 1204.0506515353713 341.43500988113175Q1207.3918321931296 345.0478312427728 1207.3918321931296 349.557066927227L1207.3918321931296 349.557066927227Q1207.3918321931296 354.82689658255305 1203.8605030426534 357.65195990293404Q1200.329173892177 360.5041872937033 1195.8471022781112 360.5041872937033L1195.8471022781112 360.5041872937033Q1192.1256246349171 360.5041872937033 1188.5128032732762 358.5483742257472Q1184.899981911635 356.5925611577912 1183.1343173363969 352.4907865291611L1183.1343173363969 352.4907865291611Q1176.479120091269 352.4907865291611 1171.2907826471076 357.65195990293404Q1166.1024452029465 362.84029734709515 1166.1024452029465 369.6856430849413L1166.1024452029465 369.6856430849413L1166.1024452029465 411.7356240459963Q1166.1024452029465 419.36872782510255 1166.9988595257596 422.6827444124726Q1167.8681097781846 426.02392507023075 1171.698243702932 426.89317532265574Q1175.5012135572908 427.7895896454689 1184.112223870375 428.16988663090484L1184.112223870375 428.16988663090484Q1184.4925208558109 430.9134577401209 1184.112223870375 434.22747432749094L1184.112223870375 434.22747432749094Q1177.4570266252467 434.22747432749094 1170.4215323946828 434.03732583477296Q1163.3860381641184 433.847177342055 1155.9430828777304 433.847177342055L1155.9430828777304 433.847177342055Q1148.7174401544482 433.847177342055 1143.121641654463 434.03732583477296Q1137.5530072248657 434.22747432749094 1131.4954195282799 434.22747432749094Z " fill="#161b21" transform="matrix(0.7247025994811752,0,0,0.7247025994811751,0,38.111733378909776)"/></g></svg>